# xmcd CD database file
#
# Track frame offsets:
#	150
#	27986
#	43638
#	55394
#	83978
#	106849
#	135336
#	155203
#	173211
#	200497
#	212182
#	225532
#	246413
#	267012
#	297615
#	321480
#	338530
#
# Disc length: 4702 seconds
#
# Revision: 0
# Processed by: cddbd v1.5.2PL0 Copyright (c) Steve Scherf et al.
# Submitted via: CDex 1.51
#
DISCID=fe125c11
DTITLE=Johnny Colon And His Orchestra - The Best
DYEAR=2009
DGENRE=Salsa
TTITLE0=Cuero Estirao
TTITLE1=Canallon
TTITLE2=New York Mambo
TTITLE3=Merecumbe
TTITLE4=Echala Pa Ca
TTITLE5=Entre Compay Y Comay
TTITLE6=Mala Mujer
TTITLE7=No Hace Falta Papel
TTITLE8=Dejame En Paz
TTITLE9=Retorno Del Mambo
TTITLE10=Cosa Pa Ti
TTITLE11=Son Montuno
TTITLE12=Si Te Fuiste Y Que
TTITLE13=Descarga
TTITLE14=El Mensaje
TTITLE15=El Callo
TTITLE16=Guajira Y Tambor
EXTD=YEAR: 2009
EXTT0=
EXTT1=
EXTT2=
EXTT3=
EXTT4=
EXTT5=
EXTT6=
EXTT7=
EXTT8=
EXTT9=
EXTT10=
EXTT11=
EXTT12=
EXTT13=
EXTT14=
EXTT15=
EXTT16=
PLAYORDER=
